<mxfile host="app.diagrams.net" modified="2023-05-30T08:22:01.321Z" agent="Mozilla/5.0 (Windows NT 10.0; Win64; x64) AppleWebKit/537.36 (KHTML, like Gecko) Chrome/112.0.0.0 Safari/537.36 OPR/98.0.0.0" etag="X_898ZfSTIRQyVHi48Ws" version="21.3.5" type="google">
  <diagram id="R2lEEEUBdFMjLlhIrx00" name="Page-1">
    <mxGraphModel grid="1" page="1" gridSize="10" guides="1" tooltips="1" connect="1" arrows="1" fold="1" pageScale="1" pageWidth="850" pageHeight="1100" math="0" shadow="0" extFonts="Permanent Marker^https://fonts.googleapis.com/css?family=Permanent+Marker">
      <root>
        <mxCell id="0" />
        <mxCell id="1" parent="0" />
        <mxCell id="kLiCsADxDOaByPhMemZW-9" value="" style="edgeStyle=orthogonalEdgeStyle;fontSize=12;html=1;endArrow=ERzeroToMany;startArrow=ERmandOne;rounded=0;exitX=0.5;exitY=1;exitDx=0;exitDy=0;entryX=0;entryY=0.25;entryDx=0;entryDy=0;endFill=0;" edge="1" parent="1" source="BisLDDUWsDWxhxLu43ZZ-93" target="BisLDDUWsDWxhxLu43ZZ-123">
          <mxGeometry width="100" height="100" relative="1" as="geometry">
            <mxPoint x="1390" y="260" as="sourcePoint" />
            <mxPoint x="1000" y="570" as="targetPoint" />
            <Array as="points">
              <mxPoint x="1300" y="250" />
              <mxPoint x="1300" y="370" />
              <mxPoint x="980" y="370" />
              <mxPoint x="980" y="520" />
              <mxPoint x="1000" y="520" />
              <mxPoint x="1000" y="600" />
            </Array>
          </mxGeometry>
        </mxCell>
        <mxCell id="BisLDDUWsDWxhxLu43ZZ-69" value="person" style="rounded=0;whiteSpace=wrap;html=1;" vertex="1" parent="1">
          <mxGeometry x="20" y="40" width="240" height="40" as="geometry" />
        </mxCell>
        <mxCell id="BisLDDUWsDWxhxLu43ZZ-70" value="person_of_interest" style="rounded=0;whiteSpace=wrap;html=1;" vertex="1" parent="1">
          <mxGeometry x="390" y="70" width="280" height="40" as="geometry" />
        </mxCell>
        <mxCell id="BisLDDUWsDWxhxLu43ZZ-71" value="charges_on_person" style="rounded=0;whiteSpace=wrap;html=1;" vertex="1" parent="1">
          <mxGeometry x="2160" y="290" width="240" height="40" as="geometry" />
        </mxCell>
        <mxCell id="BisLDDUWsDWxhxLu43ZZ-72" value="contact information" style="rounded=0;whiteSpace=wrap;html=1;" vertex="1" parent="1">
          <mxGeometry x="700" y="-360" width="240" height="40" as="geometry" />
        </mxCell>
        <mxCell id="BisLDDUWsDWxhxLu43ZZ-73" value="statement" style="rounded=0;whiteSpace=wrap;html=1;" vertex="1" parent="1">
          <mxGeometry x="360" y="310" width="240" height="40" as="geometry" />
        </mxCell>
        <mxCell id="BisLDDUWsDWxhxLu43ZZ-74" value="witnesses_on_crime_scene" style="rounded=0;whiteSpace=wrap;html=1;" vertex="1" parent="1">
          <mxGeometry x="1440" y="400" width="240" height="40" as="geometry" />
        </mxCell>
        <mxCell id="BisLDDUWsDWxhxLu43ZZ-75" value="officer" style="rounded=0;whiteSpace=wrap;html=1;" vertex="1" parent="1">
          <mxGeometry x="360" y="-200" width="240" height="40" as="geometry" />
        </mxCell>
        <mxCell id="BisLDDUWsDWxhxLu43ZZ-76" value="case" style="rounded=0;whiteSpace=wrap;html=1;" vertex="1" parent="1">
          <mxGeometry x="1430" y="190" width="240" height="40" as="geometry" />
        </mxCell>
        <mxCell id="BisLDDUWsDWxhxLu43ZZ-77" value="crime" style="rounded=0;whiteSpace=wrap;html=1;" vertex="1" parent="1">
          <mxGeometry x="670" y="320" width="240" height="40" as="geometry" />
        </mxCell>
        <mxCell id="BisLDDUWsDWxhxLu43ZZ-78" value="crime_scene" style="rounded=0;whiteSpace=wrap;html=1;" vertex="1" parent="1">
          <mxGeometry x="1020" y="500" width="240" height="40" as="geometry" />
        </mxCell>
        <mxCell id="BisLDDUWsDWxhxLu43ZZ-79" value="officers_on_crime_scene" style="rounded=0;whiteSpace=wrap;html=1;" vertex="1" parent="1">
          <mxGeometry x="790" y="-190" width="240" height="40" as="geometry" />
        </mxCell>
        <mxCell id="BisLDDUWsDWxhxLu43ZZ-80" value="evidence" style="rounded=0;whiteSpace=wrap;html=1;" vertex="1" parent="1">
          <mxGeometry x="930" y="820" width="240" height="40" as="geometry" />
        </mxCell>
        <mxCell id="BisLDDUWsDWxhxLu43ZZ-81" value="witness" style="rounded=0;whiteSpace=wrap;html=1;" vertex="1" parent="1">
          <mxGeometry x="1440" y="-40" width="240" height="40" as="geometry" />
        </mxCell>
        <mxCell id="BisLDDUWsDWxhxLu43ZZ-82" value="charge" style="rounded=0;whiteSpace=wrap;html=1;" vertex="1" parent="1">
          <mxGeometry x="1820" y="-20" width="240" height="40" as="geometry" />
        </mxCell>
        <mxCell id="BisLDDUWsDWxhxLu43ZZ-83" value="arrest" style="rounded=0;whiteSpace=wrap;html=1;" vertex="1" parent="1">
          <mxGeometry x="1440" y="650" width="240" height="40" as="geometry" />
        </mxCell>
        <mxCell id="BisLDDUWsDWxhxLu43ZZ-84" value="PK" style="rounded=0;whiteSpace=wrap;html=1;" vertex="1" parent="1">
          <mxGeometry x="700" y="-320" width="40" height="40" as="geometry" />
        </mxCell>
        <mxCell id="BisLDDUWsDWxhxLu43ZZ-85" value="PK" style="rounded=0;whiteSpace=wrap;html=1;" vertex="1" parent="1">
          <mxGeometry x="2160" y="330" width="40" height="40" as="geometry" />
        </mxCell>
        <mxCell id="BisLDDUWsDWxhxLu43ZZ-87" value="PK" style="rounded=0;whiteSpace=wrap;html=1;" vertex="1" parent="1">
          <mxGeometry x="670" y="360" width="40" height="40" as="geometry" />
        </mxCell>
        <mxCell id="BisLDDUWsDWxhxLu43ZZ-88" value="PK" style="rounded=0;whiteSpace=wrap;html=1;direction=south;" vertex="1" parent="1">
          <mxGeometry x="1020" y="540" width="40" height="40" as="geometry" />
        </mxCell>
        <mxCell id="BisLDDUWsDWxhxLu43ZZ-89" value="PK" style="rounded=0;whiteSpace=wrap;html=1;direction=south;" vertex="1" parent="1">
          <mxGeometry x="1820" y="20" width="40" height="40" as="geometry" />
        </mxCell>
        <mxCell id="BisLDDUWsDWxhxLu43ZZ-90" value="PK" style="rounded=0;whiteSpace=wrap;html=1;" vertex="1" parent="1">
          <mxGeometry x="390" y="110" width="40" height="40" as="geometry" />
        </mxCell>
        <mxCell id="BisLDDUWsDWxhxLu43ZZ-91" value="PK" style="rounded=0;whiteSpace=wrap;html=1;" vertex="1" parent="1">
          <mxGeometry x="20" y="80" width="40" height="40" as="geometry" />
        </mxCell>
        <mxCell id="BisLDDUWsDWxhxLu43ZZ-92" value="PK" style="rounded=0;whiteSpace=wrap;html=1;" vertex="1" parent="1">
          <mxGeometry x="360" y="-160" width="40" height="40" as="geometry" />
        </mxCell>
        <mxCell id="BisLDDUWsDWxhxLu43ZZ-93" value="PK" style="rounded=0;whiteSpace=wrap;html=1;direction=south;" vertex="1" parent="1">
          <mxGeometry x="1430" y="230" width="40" height="40" as="geometry" />
        </mxCell>
        <mxCell id="BisLDDUWsDWxhxLu43ZZ-94" value="PK" style="rounded=0;whiteSpace=wrap;html=1;direction=south;" vertex="1" parent="1">
          <mxGeometry x="1440" width="40" height="40" as="geometry" />
        </mxCell>
        <mxCell id="BisLDDUWsDWxhxLu43ZZ-95" value="PK" style="rounded=0;whiteSpace=wrap;html=1;" vertex="1" parent="1">
          <mxGeometry x="1440" y="440" width="40" height="40" as="geometry" />
        </mxCell>
        <mxCell id="BisLDDUWsDWxhxLu43ZZ-96" value="PK" style="rounded=0;whiteSpace=wrap;html=1;" vertex="1" parent="1">
          <mxGeometry x="360" y="350" width="40" height="40" as="geometry" />
        </mxCell>
        <mxCell id="BisLDDUWsDWxhxLu43ZZ-97" value="PK" style="rounded=0;whiteSpace=wrap;html=1;" vertex="1" parent="1">
          <mxGeometry x="790" y="-150" width="40" height="40" as="geometry" />
        </mxCell>
        <mxCell id="BisLDDUWsDWxhxLu43ZZ-98" value="PK" style="rounded=0;whiteSpace=wrap;html=1;direction=south;" vertex="1" parent="1">
          <mxGeometry x="930" y="860" width="40" height="40" as="geometry" />
        </mxCell>
        <mxCell id="BisLDDUWsDWxhxLu43ZZ-99" value="PK" style="rounded=0;whiteSpace=wrap;html=1;direction=south;" vertex="1" parent="1">
          <mxGeometry x="1440" y="690" width="40" height="40" as="geometry" />
        </mxCell>
        <mxCell id="BisLDDUWsDWxhxLu43ZZ-115" value="" style="rounded=0;whiteSpace=wrap;html=1;" vertex="1" parent="1">
          <mxGeometry x="20" y="120" width="40" height="120" as="geometry" />
        </mxCell>
        <mxCell id="BisLDDUWsDWxhxLu43ZZ-116" value="&lt;br&gt;&lt;br&gt;&lt;br&gt;&lt;br&gt;&lt;br&gt;FK" style="rounded=0;whiteSpace=wrap;html=1;" vertex="1" parent="1">
          <mxGeometry x="390" y="150" width="40" height="120" as="geometry" />
        </mxCell>
        <mxCell id="BisLDDUWsDWxhxLu43ZZ-117" value="" style="rounded=0;whiteSpace=wrap;html=1;" vertex="1" parent="1">
          <mxGeometry x="360" y="-120" width="40" height="120" as="geometry" />
        </mxCell>
        <mxCell id="BisLDDUWsDWxhxLu43ZZ-118" value="&lt;br&gt;&lt;br&gt;FK" style="rounded=0;whiteSpace=wrap;html=1;" vertex="1" parent="1">
          <mxGeometry x="1430" y="270" width="40" height="40" as="geometry" />
        </mxCell>
        <mxCell id="BisLDDUWsDWxhxLu43ZZ-119" value="FK&lt;br&gt;FK" style="rounded=0;whiteSpace=wrap;html=1;" vertex="1" parent="1">
          <mxGeometry x="1440" y="40" width="40" height="50" as="geometry" />
        </mxCell>
        <mxCell id="BisLDDUWsDWxhxLu43ZZ-120" value="" style="rounded=0;whiteSpace=wrap;html=1;" vertex="1" parent="1">
          <mxGeometry x="2160" y="370" width="40" height="40" as="geometry" />
        </mxCell>
        <mxCell id="BisLDDUWsDWxhxLu43ZZ-121" value="" style="rounded=0;whiteSpace=wrap;html=1;" vertex="1" parent="1">
          <mxGeometry x="700" y="-280" width="40" height="40" as="geometry" />
        </mxCell>
        <mxCell id="BisLDDUWsDWxhxLu43ZZ-122" value="" style="rounded=0;whiteSpace=wrap;html=1;" vertex="1" parent="1">
          <mxGeometry x="670" y="400" width="40" height="80" as="geometry" />
        </mxCell>
        <mxCell id="BisLDDUWsDWxhxLu43ZZ-123" value="" style="rounded=0;whiteSpace=wrap;html=1;" vertex="1" parent="1">
          <mxGeometry x="1020" y="580" width="40" height="80" as="geometry" />
        </mxCell>
        <mxCell id="BisLDDUWsDWxhxLu43ZZ-124" value="&lt;br&gt;&lt;br&gt;FK&lt;br&gt;FK&lt;br&gt;FK" style="rounded=0;whiteSpace=wrap;html=1;" vertex="1" parent="1">
          <mxGeometry x="1820" y="60" width="40" height="120" as="geometry" />
        </mxCell>
        <mxCell id="BisLDDUWsDWxhxLu43ZZ-125" value="" style="rounded=0;whiteSpace=wrap;html=1;" vertex="1" parent="1">
          <mxGeometry x="360" y="390" width="40" height="80" as="geometry" />
        </mxCell>
        <mxCell id="BisLDDUWsDWxhxLu43ZZ-126" value="FK&lt;br&gt;FK" style="rounded=0;whiteSpace=wrap;html=1;" vertex="1" parent="1">
          <mxGeometry x="1440" y="480" width="40" height="40" as="geometry" />
        </mxCell>
        <mxCell id="BisLDDUWsDWxhxLu43ZZ-127" value="FK&lt;br&gt;FK" style="rounded=0;whiteSpace=wrap;html=1;" vertex="1" parent="1">
          <mxGeometry x="790" y="-110" width="40" height="40" as="geometry" />
        </mxCell>
        <mxCell id="BisLDDUWsDWxhxLu43ZZ-128" value="&lt;br&gt;&lt;br&gt;&lt;br&gt;&lt;br&gt;FK" style="rounded=0;whiteSpace=wrap;html=1;" vertex="1" parent="1">
          <mxGeometry x="930" y="900" width="40" height="80" as="geometry" />
        </mxCell>
        <mxCell id="BisLDDUWsDWxhxLu43ZZ-129" value="&lt;br&gt;&lt;br&gt;FK" style="rounded=0;whiteSpace=wrap;html=1;" vertex="1" parent="1">
          <mxGeometry x="1440" y="730" width="40" height="120" as="geometry" />
        </mxCell>
        <mxCell id="BisLDDUWsDWxhxLu43ZZ-130" value="first_name varchar(35) not null, last_name varchar(35) not null, date_of_birth date not null,&lt;br&gt;&amp;nbsp;gender varchar(35) not null, nationality varchar(35)" style="rounded=0;whiteSpace=wrap;html=1;" vertex="1" parent="1">
          <mxGeometry x="60" y="120" width="200" height="120" as="geometry" />
        </mxCell>
        <mxCell id="BisLDDUWsDWxhxLu43ZZ-132" value="" style="rounded=0;whiteSpace=wrap;html=1;" vertex="1" parent="1">
          <mxGeometry x="400" y="-120" width="200" height="120" as="geometry" />
        </mxCell>
        <mxCell id="BisLDDUWsDWxhxLu43ZZ-137" value="status text not null,&lt;br&gt;crime_scene_id int not null" style="rounded=0;whiteSpace=wrap;html=1;" vertex="1" parent="1">
          <mxGeometry x="1470" y="270" width="200" height="40" as="geometry" />
        </mxCell>
        <mxCell id="BisLDDUWsDWxhxLu43ZZ-138" value="person_id int not null,&lt;br&gt;contact_information_id int not null" style="rounded=0;whiteSpace=wrap;html=1;" vertex="1" parent="1">
          <mxGeometry x="1480" y="40" width="200" height="50" as="geometry" />
        </mxCell>
        <mxCell id="1XuepNZvNTfI_OF28OBT-3" style="edgeStyle=orthogonalEdgeStyle;rounded=0;orthogonalLoop=1;jettySize=auto;html=1;exitX=1;exitY=1;exitDx=0;exitDy=0;" edge="1" parent="1">
          <mxGeometry relative="1" as="geometry">
            <mxPoint x="679.6666666666665" y="320.3333333333335" as="targetPoint" />
            <mxPoint x="680" y="320" as="sourcePoint" />
          </mxGeometry>
        </mxCell>
        <mxCell id="BisLDDUWsDWxhxLu43ZZ-139" value="eye_color varchar, hair_color varchar, weight decimal(6,2),&lt;br&gt;&amp;nbsp;height decimal(6,2),&lt;br&gt;&amp;nbsp;additional_details text, status text not null, person_id int not null" style="rounded=0;whiteSpace=wrap;html=1;" vertex="1" parent="1">
          <mxGeometry x="430" y="150" width="240" height="120" as="geometry" />
        </mxCell>
        <mxCell id="BisLDDUWsDWxhxLu43ZZ-140" value="badge_number varchar not null, &lt;br&gt;rank varchar not null,&lt;br&gt;&amp;nbsp;department varchar not null, person_id int not null, contact_information_id int not null" style="rounded=0;whiteSpace=wrap;html=1;" vertex="1" parent="1">
          <mxGeometry x="400" y="-120" width="200" height="120" as="geometry" />
        </mxCell>
        <mxCell id="BisLDDUWsDWxhxLu43ZZ-141" value="charge_id int not null,&lt;br&gt;person_of_interest_id int not null" style="rounded=0;whiteSpace=wrap;html=1;" vertex="1" parent="1">
          <mxGeometry x="2200" y="370" width="200" height="40" as="geometry" />
        </mxCell>
        <mxCell id="BisLDDUWsDWxhxLu43ZZ-143" value="severity varchar not null,&lt;br&gt;description text not null,&lt;br&gt;case_id int not null,&lt;br&gt;crime_id int not null,&lt;br&gt;person_of_interest_id int not null" style="rounded=0;whiteSpace=wrap;html=1;" vertex="1" parent="1">
          <mxGeometry x="1860" y="60" width="200" height="120" as="geometry" />
        </mxCell>
        <mxCell id="BisLDDUWsDWxhxLu43ZZ-144" value="phone_number varchar(24),&lt;br&gt;email varchar" style="rounded=0;whiteSpace=wrap;html=1;" vertex="1" parent="1">
          <mxGeometry x="740" y="-280" width="200" height="40" as="geometry" />
        </mxCell>
        <mxCell id="BisLDDUWsDWxhxLu43ZZ-145" value="name varchar not null,&lt;br&gt;description text not null,&lt;br&gt;severity varchar not null" style="rounded=0;whiteSpace=wrap;html=1;" vertex="1" parent="1">
          <mxGeometry x="710" y="400" width="200" height="80" as="geometry" />
        </mxCell>
        <mxCell id="BisLDDUWsDWxhxLu43ZZ-146" value="statement text not null,&lt;br&gt;witness_id int not null,&lt;br&gt;crime_scene_id int not null" style="rounded=0;whiteSpace=wrap;html=1;" vertex="1" parent="1">
          <mxGeometry x="400" y="390" width="200" height="80" as="geometry" />
        </mxCell>
        <mxCell id="BisLDDUWsDWxhxLu43ZZ-147" value="name varchar not null,&lt;br&gt;type varchar not null,&lt;br&gt;description text not null,&lt;br&gt;crime_scene_id int not null" style="rounded=0;whiteSpace=wrap;html=1;" vertex="1" parent="1">
          <mxGeometry x="970" y="900" width="200" height="80" as="geometry" />
        </mxCell>
        <mxCell id="BisLDDUWsDWxhxLu43ZZ-148" value="date date not null,time &lt;br&gt;time not null,&lt;br&gt;location varchar not null,&lt;br&gt;officer_id int not null,&lt;br&gt;person_of_interest_id int not null" style="rounded=0;whiteSpace=wrap;html=1;" vertex="1" parent="1">
          <mxGeometry x="1480" y="730" width="200" height="120" as="geometry" />
        </mxCell>
        <mxCell id="BisLDDUWsDWxhxLu43ZZ-149" value="witness_id int not null,&lt;br&gt;crime_scene_id int not null" style="rounded=0;whiteSpace=wrap;html=1;" vertex="1" parent="1">
          <mxGeometry x="1480" y="470" width="200" height="50" as="geometry" />
        </mxCell>
        <mxCell id="BisLDDUWsDWxhxLu43ZZ-150" value="officer_id int not null,&lt;br&gt;crime_scene_id int not null" style="rounded=0;whiteSpace=wrap;html=1;" vertex="1" parent="1">
          <mxGeometry x="830" y="-110" width="200" height="40" as="geometry" />
        </mxCell>
        <mxCell id="r-yUpNaebApx0gLYNu3a-11" value="date date not null,time time,&lt;br&gt;location varchar not null,&lt;br&gt;description text not null,&lt;br&gt;crime_id int not null" style="rounded=0;whiteSpace=wrap;html=1;" vertex="1" parent="1">
          <mxGeometry x="1060" y="580" width="200" height="80" as="geometry" />
        </mxCell>
        <mxCell id="r-yUpNaebApx0gLYNu3a-12" value="Id serial" style="rounded=0;whiteSpace=wrap;html=1;" vertex="1" parent="1">
          <mxGeometry x="60" y="80" width="200" height="40" as="geometry" />
        </mxCell>
        <mxCell id="r-yUpNaebApx0gLYNu3a-19" value="Id serial" style="rounded=0;whiteSpace=wrap;html=1;" vertex="1" parent="1">
          <mxGeometry x="430" y="110" width="240" height="40" as="geometry" />
        </mxCell>
        <mxCell id="r-yUpNaebApx0gLYNu3a-20" value="Id serial" style="rounded=0;whiteSpace=wrap;html=1;" vertex="1" parent="1">
          <mxGeometry x="400" y="-160" width="200" height="40" as="geometry" />
        </mxCell>
        <mxCell id="r-yUpNaebApx0gLYNu3a-21" value="Id serial" style="rounded=0;whiteSpace=wrap;html=1;" vertex="1" parent="1">
          <mxGeometry x="1470" y="230" width="200" height="40" as="geometry" />
        </mxCell>
        <mxCell id="r-yUpNaebApx0gLYNu3a-22" value="Id serial" style="rounded=0;whiteSpace=wrap;html=1;" vertex="1" parent="1">
          <mxGeometry x="1480" width="200" height="40" as="geometry" />
        </mxCell>
        <mxCell id="r-yUpNaebApx0gLYNu3a-23" value="Id serial" style="rounded=0;whiteSpace=wrap;html=1;" vertex="1" parent="1">
          <mxGeometry x="60" y="80" width="200" height="40" as="geometry" />
        </mxCell>
        <mxCell id="r-yUpNaebApx0gLYNu3a-24" value="Id serial" style="rounded=0;whiteSpace=wrap;html=1;" vertex="1" parent="1">
          <mxGeometry x="430" y="110" width="240" height="40" as="geometry" />
        </mxCell>
        <mxCell id="r-yUpNaebApx0gLYNu3a-25" value="Id serial" style="rounded=0;whiteSpace=wrap;html=1;" vertex="1" parent="1">
          <mxGeometry x="400" y="-160" width="200" height="40" as="geometry" />
        </mxCell>
        <mxCell id="r-yUpNaebApx0gLYNu3a-26" value="Id serial" style="rounded=0;whiteSpace=wrap;html=1;" vertex="1" parent="1">
          <mxGeometry x="1060" y="540" width="200" height="40" as="geometry" />
        </mxCell>
        <mxCell id="r-yUpNaebApx0gLYNu3a-27" value="Id serial" style="rounded=0;whiteSpace=wrap;html=1;" vertex="1" parent="1">
          <mxGeometry x="1860" y="20" width="200" height="40" as="geometry" />
        </mxCell>
        <mxCell id="r-yUpNaebApx0gLYNu3a-28" value="Id serial" style="rounded=0;whiteSpace=wrap;html=1;" vertex="1" parent="1">
          <mxGeometry x="2200" y="330" width="200" height="40" as="geometry" />
        </mxCell>
        <mxCell id="r-yUpNaebApx0gLYNu3a-29" value="Id serial" style="rounded=0;whiteSpace=wrap;html=1;" vertex="1" parent="1">
          <mxGeometry x="740" y="-320" width="200" height="40" as="geometry" />
        </mxCell>
        <mxCell id="r-yUpNaebApx0gLYNu3a-30" value="Id serial" style="rounded=0;whiteSpace=wrap;html=1;" vertex="1" parent="1">
          <mxGeometry x="710" y="360" width="200" height="40" as="geometry" />
        </mxCell>
        <mxCell id="r-yUpNaebApx0gLYNu3a-31" value="Id serial" style="rounded=0;whiteSpace=wrap;html=1;" vertex="1" parent="1">
          <mxGeometry x="970" y="860" width="200" height="40" as="geometry" />
        </mxCell>
        <mxCell id="r-yUpNaebApx0gLYNu3a-32" value="Id serial" style="rounded=0;whiteSpace=wrap;html=1;" vertex="1" parent="1">
          <mxGeometry x="1480" y="690" width="200" height="40" as="geometry" />
        </mxCell>
        <mxCell id="r-yUpNaebApx0gLYNu3a-33" value="Id serial" style="rounded=0;whiteSpace=wrap;html=1;" vertex="1" parent="1">
          <mxGeometry x="400" y="350" width="200" height="40" as="geometry" />
        </mxCell>
        <mxCell id="r-yUpNaebApx0gLYNu3a-34" value="Id serial" style="rounded=0;whiteSpace=wrap;html=1;" vertex="1" parent="1">
          <mxGeometry x="1480" y="440" width="200" height="40" as="geometry" />
        </mxCell>
        <mxCell id="r-yUpNaebApx0gLYNu3a-35" value="Id serial" style="rounded=0;whiteSpace=wrap;html=1;" vertex="1" parent="1">
          <mxGeometry x="830" y="-150" width="200" height="40" as="geometry" />
        </mxCell>
        <mxCell id="kLiCsADxDOaByPhMemZW-8" value="" style="edgeStyle=entityRelationEdgeStyle;fontSize=12;html=1;endArrow=ERoneToMany;startArrow=ERmandOne;rounded=0;entryX=0.5;entryY=1;entryDx=0;entryDy=0;exitX=1;exitY=0.5;exitDx=0;exitDy=0;" edge="1" parent="1" source="BisLDDUWsDWxhxLu43ZZ-145" target="BisLDDUWsDWxhxLu43ZZ-88">
          <mxGeometry width="100" height="100" relative="1" as="geometry">
            <mxPoint x="910" y="380" as="sourcePoint" />
            <mxPoint x="1010" y="280" as="targetPoint" />
          </mxGeometry>
        </mxCell>
        <mxCell id="kLiCsADxDOaByPhMemZW-13" value="" style="edgeStyle=orthogonalEdgeStyle;fontSize=12;html=1;endArrow=ERoneToMany;startArrow=ERmandOne;rounded=0;entryX=0;entryY=0.5;entryDx=0;entryDy=0;exitX=0;exitY=0.5;exitDx=0;exitDy=0;" edge="1" parent="1" source="BisLDDUWsDWxhxLu43ZZ-118" target="BisLDDUWsDWxhxLu43ZZ-124">
          <mxGeometry width="100" height="100" relative="1" as="geometry">
            <mxPoint x="1360" y="300" as="sourcePoint" />
            <mxPoint x="1280" y="330" as="targetPoint" />
            <Array as="points">
              <mxPoint x="1350" y="290" />
              <mxPoint x="1350" y="310" />
              <mxPoint x="1700" y="310" />
              <mxPoint x="1700" y="120" />
            </Array>
          </mxGeometry>
        </mxCell>
        <mxCell id="kLiCsADxDOaByPhMemZW-14" value="" style="edgeStyle=orthogonalEdgeStyle;fontSize=12;html=1;endArrow=ERoneToMany;startArrow=ERmandOne;rounded=0;exitX=1;exitY=0.25;exitDx=0;exitDy=0;entryX=-0.053;entryY=0.633;entryDx=0;entryDy=0;entryPerimeter=0;" edge="1" parent="1" source="BisLDDUWsDWxhxLu43ZZ-145" target="BisLDDUWsDWxhxLu43ZZ-124">
          <mxGeometry width="100" height="100" relative="1" as="geometry">
            <mxPoint x="1250" y="110" as="sourcePoint" />
            <mxPoint x="1340" y="410" as="targetPoint" />
            <Array as="points">
              <mxPoint x="910" y="370" />
              <mxPoint x="960" y="370" />
              <mxPoint x="960" y="310" />
              <mxPoint x="1120" y="310" />
              <mxPoint x="1120" y="326" />
              <mxPoint x="1720" y="326" />
              <mxPoint x="1720" y="136" />
            </Array>
          </mxGeometry>
        </mxCell>
        <mxCell id="kLiCsADxDOaByPhMemZW-16" value="" style="edgeStyle=orthogonalEdgeStyle;fontSize=12;html=1;endArrow=ERoneToMany;startArrow=ERmandOne;rounded=0;entryX=0;entryY=0.75;entryDx=0;entryDy=0;exitX=0;exitY=0;exitDx=0;exitDy=0;" edge="1" parent="1" source="BisLDDUWsDWxhxLu43ZZ-123" target="BisLDDUWsDWxhxLu43ZZ-128">
          <mxGeometry width="100" height="100" relative="1" as="geometry">
            <mxPoint x="970" y="560" as="sourcePoint" />
            <mxPoint x="760" y="960" as="targetPoint" />
            <Array as="points">
              <mxPoint x="740" y="580" />
              <mxPoint x="740" y="960" />
            </Array>
          </mxGeometry>
        </mxCell>
        <mxCell id="1XuepNZvNTfI_OF28OBT-2" value="" style="edgeStyle=orthogonalEdgeStyle;fontSize=12;html=1;endArrow=ERoneToMany;startArrow=ERmandOne;rounded=0;exitX=1;exitY=0.5;exitDx=0;exitDy=0;entryX=0;entryY=0.25;entryDx=0;entryDy=0;" edge="1" parent="1" source="BisLDDUWsDWxhxLu43ZZ-144" target="BisLDDUWsDWxhxLu43ZZ-119">
          <mxGeometry width="100" height="100" relative="1" as="geometry">
            <mxPoint x="790" y="-100" as="sourcePoint" />
            <mxPoint x="1160" y="-40" as="targetPoint" />
            <Array as="points">
              <mxPoint x="1140" y="-260" />
              <mxPoint x="1140" y="-50" />
              <mxPoint x="1340" y="-50" />
              <mxPoint x="1340" y="53" />
            </Array>
          </mxGeometry>
        </mxCell>
        <mxCell id="1XuepNZvNTfI_OF28OBT-5" value="" style="edgeStyle=orthogonalEdgeStyle;fontSize=12;html=1;endArrow=ERoneToMany;startArrow=ERmandOne;rounded=0;exitX=0.25;exitY=1;exitDx=0;exitDy=0;entryX=1;entryY=0.5;entryDx=0;entryDy=0;" edge="1" parent="1" source="BisLDDUWsDWxhxLu43ZZ-94" target="BisLDDUWsDWxhxLu43ZZ-146">
          <mxGeometry width="100" height="100" relative="1" as="geometry">
            <mxPoint x="850" y="220" as="sourcePoint" />
            <mxPoint x="690" y="310" as="targetPoint" />
            <Array as="points">
              <mxPoint x="710" y="10" />
              <mxPoint x="710" y="300" />
              <mxPoint x="630" y="300" />
              <mxPoint x="630" y="430" />
            </Array>
          </mxGeometry>
        </mxCell>
        <mxCell id="1XuepNZvNTfI_OF28OBT-7" value="" style="edgeStyle=orthogonalEdgeStyle;fontSize=12;html=1;endArrow=ERoneToMany;startArrow=ERmandOne;rounded=0;entryX=0;entryY=0.75;entryDx=0;entryDy=0;" edge="1" parent="1" target="BisLDDUWsDWxhxLu43ZZ-129">
          <mxGeometry width="100" height="100" relative="1" as="geometry">
            <mxPoint x="600" y="-150" as="sourcePoint" />
            <mxPoint x="1290" y="670" as="targetPoint" />
            <Array as="points">
              <mxPoint x="750" y="-150" />
              <mxPoint x="750" y="-30" />
              <mxPoint x="1270" y="-30" />
              <mxPoint x="1270" y="310" />
              <mxPoint x="1290" y="310" />
              <mxPoint x="1290" y="820" />
            </Array>
          </mxGeometry>
        </mxCell>
        <mxCell id="1XuepNZvNTfI_OF28OBT-10" value="" style="edgeStyle=orthogonalEdgeStyle;fontSize=12;html=1;endArrow=ERoneToMany;startArrow=ERmandOne;rounded=0;exitX=1;exitY=0.75;exitDx=0;exitDy=0;entryX=-0.025;entryY=0.846;entryDx=0;entryDy=0;entryPerimeter=0;" edge="1" parent="1" source="BisLDDUWsDWxhxLu43ZZ-139" target="BisLDDUWsDWxhxLu43ZZ-129">
          <mxGeometry width="100" height="100" relative="1" as="geometry">
            <mxPoint x="810" y="230" as="sourcePoint" />
            <mxPoint x="1320" y="700" as="targetPoint" />
            <Array as="points">
              <mxPoint x="850" y="240" />
              <mxPoint x="850" y="270" />
              <mxPoint x="1250" y="270" />
              <mxPoint x="1250" y="700" />
              <mxPoint x="1339" y="700" />
            </Array>
          </mxGeometry>
        </mxCell>
        <mxCell id="1XuepNZvNTfI_OF28OBT-11" value="" style="edgeStyle=orthogonalEdgeStyle;fontSize=12;html=1;endArrow=ERoneToMany;startArrow=ERoneToMany;rounded=0;entryX=0;entryY=0.5;entryDx=0;entryDy=0;exitX=1;exitY=0.75;exitDx=0;exitDy=0;" edge="1" parent="1" source="BisLDDUWsDWxhxLu43ZZ-139" target="BisLDDUWsDWxhxLu43ZZ-120">
          <mxGeometry width="100" height="100" relative="1" as="geometry">
            <mxPoint x="1550" y="110" as="sourcePoint" />
            <mxPoint x="1240" y="200" as="targetPoint" />
            <Array as="points">
              <mxPoint x="930" y="240" />
              <mxPoint x="930" y="290" />
              <mxPoint x="1310" y="290" />
              <mxPoint x="1310" y="390" />
            </Array>
          </mxGeometry>
        </mxCell>
        <mxCell id="1XuepNZvNTfI_OF28OBT-12" value="" style="edgeStyle=entityRelationEdgeStyle;fontSize=12;html=1;endArrow=ERoneToMany;startArrow=ERoneToMany;rounded=0;exitX=1;exitY=0.5;exitDx=0;exitDy=0;entryX=0;entryY=0.75;entryDx=0;entryDy=0;" edge="1" parent="1" source="r-yUpNaebApx0gLYNu3a-27" target="BisLDDUWsDWxhxLu43ZZ-120">
          <mxGeometry width="100" height="100" relative="1" as="geometry">
            <mxPoint x="1510" y="500" as="sourcePoint" />
            <mxPoint x="1610" y="400" as="targetPoint" />
          </mxGeometry>
        </mxCell>
        <mxCell id="1XuepNZvNTfI_OF28OBT-15" value="" style="edgeStyle=entityRelationEdgeStyle;fontSize=12;html=1;endArrow=ERzeroToMany;startArrow=ERoneToMany;rounded=0;exitX=1;exitY=0.5;exitDx=0;exitDy=0;entryX=0;entryY=0.25;entryDx=0;entryDy=0;startFill=0;endFill=0;" edge="1" parent="1" source="r-yUpNaebApx0gLYNu3a-25" target="BisLDDUWsDWxhxLu43ZZ-127">
          <mxGeometry width="100" height="100" relative="1" as="geometry">
            <mxPoint x="610" y="-120" as="sourcePoint" />
            <mxPoint x="870" y="-10" as="targetPoint" />
          </mxGeometry>
        </mxCell>
        <mxCell id="1XuepNZvNTfI_OF28OBT-16" value="" style="edgeStyle=orthogonalEdgeStyle;fontSize=12;html=1;endArrow=ERoneToMany;startArrow=ERzeroToMany;rounded=0;exitX=1;exitY=0.75;exitDx=0;exitDy=0;entryX=0.25;entryY=1;entryDx=0;entryDy=0;endFill=0;startFill=0;" edge="1" parent="1" source="BisLDDUWsDWxhxLu43ZZ-150" target="BisLDDUWsDWxhxLu43ZZ-88">
          <mxGeometry width="100" height="100" relative="1" as="geometry">
            <mxPoint x="1040" y="-80" as="sourcePoint" />
            <mxPoint x="1230" y="-40" as="targetPoint" />
            <Array as="points">
              <mxPoint x="1130" y="-80" />
              <mxPoint x="1130" y="235" />
              <mxPoint x="950" y="235" />
              <mxPoint x="950" y="550" />
            </Array>
          </mxGeometry>
        </mxCell>
        <mxCell id="1XuepNZvNTfI_OF28OBT-17" value="" style="edgeStyle=orthogonalEdgeStyle;fontSize=12;html=1;endArrow=ERzeroToMany;startArrow=ERoneToMany;rounded=0;entryX=0;entryY=0.75;entryDx=0;entryDy=0;exitX=0.75;exitY=1;exitDx=0;exitDy=0;endFill=0;" edge="1" parent="1" source="BisLDDUWsDWxhxLu43ZZ-88" target="BisLDDUWsDWxhxLu43ZZ-126">
          <mxGeometry width="100" height="100" relative="1" as="geometry">
            <mxPoint x="980" y="470" as="sourcePoint" />
            <mxPoint x="1160" y="360" as="targetPoint" />
            <Array as="points">
              <mxPoint x="970" y="570" />
              <mxPoint x="970" y="471" />
              <mxPoint x="1270" y="471" />
              <mxPoint x="1270" y="510" />
              <mxPoint x="1390" y="510" />
            </Array>
          </mxGeometry>
        </mxCell>
        <mxCell id="1XuepNZvNTfI_OF28OBT-18" value="" style="edgeStyle=orthogonalEdgeStyle;fontSize=12;html=1;endArrow=ERoneToMany;startArrow=ERzeroToMany;rounded=0;exitX=0;exitY=0.25;exitDx=0;exitDy=0;entryX=0.5;entryY=1;entryDx=0;entryDy=0;startFill=0;" edge="1" parent="1" source="BisLDDUWsDWxhxLu43ZZ-126" target="BisLDDUWsDWxhxLu43ZZ-94">
          <mxGeometry width="100" height="100" relative="1" as="geometry">
            <mxPoint x="1330" y="120" as="sourcePoint" />
            <mxPoint x="1430" y="20" as="targetPoint" />
            <Array as="points">
              <mxPoint x="1390" y="490" />
              <mxPoint x="1320" y="490" />
              <mxPoint x="1320" y="20" />
            </Array>
          </mxGeometry>
        </mxCell>
        <mxCell id="zk-BfVQ1Jdy3cZDz6VO6-2" value="" style="edgeStyle=orthogonalEdgeStyle;fontSize=12;html=1;endArrow=ERoneToMany;startArrow=ERmandOne;rounded=0;entryX=0.995;entryY=0.665;entryDx=0;entryDy=0;exitX=0;exitY=0.25;exitDx=0;exitDy=0;entryPerimeter=0;" edge="1" parent="1" source="BisLDDUWsDWxhxLu43ZZ-121" target="BisLDDUWsDWxhxLu43ZZ-140">
          <mxGeometry width="100" height="100" relative="1" as="geometry">
            <mxPoint x="920" y="210" as="sourcePoint" />
            <mxPoint x="1020" y="110" as="targetPoint" />
          </mxGeometry>
        </mxCell>
        <mxCell id="zk-BfVQ1Jdy3cZDz6VO6-3" value="" style="edgeStyle=entityRelationEdgeStyle;fontSize=12;html=1;endArrow=ERmandOne;startArrow=ERmandOne;rounded=0;entryX=0;entryY=0.583;entryDx=0;entryDy=0;entryPerimeter=0;exitX=1;exitY=0.25;exitDx=0;exitDy=0;" edge="1" parent="1" source="BisLDDUWsDWxhxLu43ZZ-130" target="BisLDDUWsDWxhxLu43ZZ-117">
          <mxGeometry width="100" height="100" relative="1" as="geometry">
            <mxPoint x="300" y="150" as="sourcePoint" />
            <mxPoint x="350" y="-50" as="targetPoint" />
          </mxGeometry>
        </mxCell>
        <mxCell id="zk-BfVQ1Jdy3cZDz6VO6-4" value="" style="edgeStyle=entityRelationEdgeStyle;fontSize=12;html=1;endArrow=ERmandOne;startArrow=ERmandOne;rounded=0;entryX=-0.056;entryY=0.811;entryDx=0;entryDy=0;entryPerimeter=0;exitX=1;exitY=0.5;exitDx=0;exitDy=0;" edge="1" parent="1" source="r-yUpNaebApx0gLYNu3a-23" target="BisLDDUWsDWxhxLu43ZZ-116">
          <mxGeometry width="100" height="100" relative="1" as="geometry">
            <mxPoint x="210" y="390" as="sourcePoint" />
            <mxPoint x="310" y="190" as="targetPoint" />
          </mxGeometry>
        </mxCell>
        <mxCell id="zk-BfVQ1Jdy3cZDz6VO6-7" value="" style="edgeStyle=orthogonalEdgeStyle;fontSize=12;html=1;endArrow=ERmandOne;startArrow=ERmandOne;rounded=0;entryX=0;entryY=0.75;entryDx=0;entryDy=0;exitX=1;exitY=0.25;exitDx=0;exitDy=0;" edge="1" parent="1" source="r-yUpNaebApx0gLYNu3a-23" target="BisLDDUWsDWxhxLu43ZZ-119">
          <mxGeometry width="100" height="100" relative="1" as="geometry">
            <mxPoint x="1320" y="280" as="sourcePoint" />
            <mxPoint x="1420" y="80" as="targetPoint" />
            <Array as="points">
              <mxPoint x="330" y="90" />
              <mxPoint x="330" y="50" />
              <mxPoint x="850" y="50" />
              <mxPoint x="850" y="78" />
            </Array>
          </mxGeometry>
        </mxCell>
      </root>
    </mxGraphModel>
  </diagram>
</mxfile>
